<svg xmlns:dc="http://purl.org/dc/elements/1.1/" xmlns:cc="http://creativecommons.org/ns#" xmlns:rdf="http://www.w3.org/1999/02/22-rdf-syntax-ns#" xmlns:svg="http://www.w3.org/2000/svg" xmlns="http://www.w3.org/2000/svg" xmlns:sodipodi="http://sodipodi.sourceforge.net/DTD/sodipodi-0.dtd" xmlns:inkscape="http://www.inkscape.org/namespaces/inkscape" version="1.1" x="0px" y="0px" viewBox="0 0 100 125"><g transform="translate(0,-952.36218)"><path style="text-indent:0;text-transform:none;direction:ltr;block-progression:tb;baseline-shift:baseline;color:#000000;enable-background:accumulate;" d="m 50.250907,961.33345 c -0.4382,0.016 -0.8857,0.063 -1.3125,0.1563 -3.4141,0.745 -6.0601,3.8439 -6.25,7.7187 -0.4349,11.4666 -1.919,18.2613 -9.0312,28.5 -0.8887,-1.4158 -2.4447,-2.375 -4.2188,-2.375 l -18,0 c -2.7353995,0 -4.9999995,2.2646 -4.9999995,4.99995 l 0,36 c 0,2.7354 2.2646,5 4.9999995,5 l 18,0 c 1.7247,0 3.2555,-0.8991 4.1562,-2.25 1.0401,0.838 2.0025,1.5906 3,2.1875 1.649,0.9866 3.5128,1.5797 6.0626,1.8438 5.0992,0.5281 13.4673,0.1377 32.7812,0.2187 0.4536,-0.01 0.9027,-0.1768 1.25,-0.4687 3.8868,-3.1706 5.5749,-6.2073 6.3438,-9.625 0.3783,-0.1165 0.7203,-0.3481 0.9687,-0.6563 2.9067,-3.6328 3.9585,-7.8241 3.2813,-11.4375 0.2785,-0.129 0.5265,-0.3232 0.7187,-0.5625 3.3952,-3.9829 4.0811,-9.0832 2.8753,-12.9375 2.0741,-2.4531 2.9314,-5.331 2.625,-7.99995 -0.4886,-3.3785 -2.9427,-6.7738 -6.0628,-7.3125 l -25.75,0 c 1.5394,-10.1284 0.519,-19.4369 -2.9062,-25.4687 -1.8493,-3.2563 -4.5459,-5.0785 -7.2188,-5.4688 -0.4455,-0.065 -0.8743,-0.079 -1.3125,-0.062 z m 5.0625,7.5 c 2.9249,5.1507 4.1387,14.7842 2.1562,25.125 -0.22,1.1535 0.7945,2.3774 1.9688,2.375 l 27.4375,0 c 1.5015,0.7703 2.4663,2.0963 2.6563,3.74995 0.1838,1.6018 -0.4677,3.4851 -2.0938,5.25 l -12.02376,0 c -1.05671,0 -2.0285,0.9433 -2.0285,2 0,1.0568 0.9719,2.015 2.0285,2 l 11.77376,0 c 0.6005,2.209 0.1388,5.149 -1.8438,8 l -9.92996,0 c -1.05671,0 -2.0285,0.9433 -2.0285,2 0,1.0568 0.9719,2.015 2.0285,2 l 7.77376,0 c 0.6005,2.209 0.1388,5.149 -1.8438,8 l -5.92996,0 c -1.05671,0 -2.0285,0.9433 -2.0285,2 0,1.0568 0.9719,2.015 2.0285,2 l 3.52376,0 c -0.6165,2.1397 -1.7446,3.7806 -4.3438,6 -18.5878,-0.064 -27.2066,0.2292 -31.5312,-0.2187 -2.205,-0.2284 -3.2404,-0.5524 -4.4062,-1.25 -1.0507,-0.6286 -2.337,-1.7373 -4.2188,-3.25 l 0,-31.1875 c 9.2929,-11.81915 11.7902,-21.75635 12.25,-34.06245 1.3382,-6.1278 6.7388,-4.4378 8.625,-0.5313 z m -43.875,30.5 18,0 c 0.5886,0 1,0.4114 1,0.99995 l 0,36 c 0,0.5886 -0.4114,1 -1,1 l -18,0 c -0.5886,0 -1,-0.4114 -1,-1 l 0,-36 c 0,-0.58855 0.4114,-0.99995 1,-0.99995 z" fill="#000000" fill-opacity="1" stroke="none" marker="none" visibility="visible" display="inline" overflow="visible"/></g></svg>