<svg xmlns="http://www.w3.org/2000/svg" xmlns:xlink="http://www.w3.org/1999/xlink" version="1.1" x="0px" y="0px" viewBox="0 0 10 12.5" enable-background="new 0 0 10 10" xml:space="preserve"><path d="M8.789,7.166c0.004-0.02,0-0.039-0.012-0.055L7.611,5.645c0.004-0.016,0.01-0.031,0.016-0.047L7.049,4.955l-0.09,0.01  L6.684,4.681C6.682,4.675,6.68,4.669,6.676,4.663L6.063,3.694c0-0.001-0.002-0.003-0.002-0.005C6.027,3.648,5.994,3.612,5.957,3.58  L5.652,3.056C4.679,3.382,4.478,3.91,4.445,4.022C4.234,4.138,4.03,4.166,3.835,4.106c-0.62-0.189-0.964-1.202-0.967-1.211  C2.867,2.89,2.865,2.886,2.862,2.882c0.109-0.319,0.164-0.671-0.001-0.893C2.495,1.498,1.867,2.104,2.129,2.596  c0,0,0.213,0.213,0.116,0.45L2.239,3.045C2.084,3.208,1.953,3.362,1.84,3.511L1.804,3.475C1.797,3.481,1.639,3.639,1.485,3.909  C1.343,4.158,1.178,4.556,1.2,5.027c0.045,0.968,0.905,1.087,1.781,1.125c0.887,0.041,2.396,0.766,2.921,1.146  c0.74,0.536,2.008,1.029,2.898,1.148l0.043-0.094C7.971,8.236,6.701,7.723,5.977,7.197C5.747,7.031,5.248,6.749,4.65,6.494  c-0.093-0.04-0.193-0.081-0.299-0.122l-0.036-0.06c0.971,0.261,2.007,1.02,2.007,1.02c1.18,0.718,2.537,0.956,2.537,0.956  l0.049-0.12L8.951,8.07C9.088,7.514,8.9,7.262,8.789,7.166z M6.707,5.768l0.467,0.397c0.027,0.022,0.043,0.056,0.047,0.09  c0.002,0.036-0.01,0.07-0.031,0.097C7.164,6.381,7.127,6.398,7.088,6.398c-0.031,0-0.063-0.013-0.086-0.032L6.535,5.969  C6.48,5.921,6.473,5.837,6.52,5.781c0.025-0.029,0.063-0.047,0.103-0.047C6.652,5.734,6.684,5.746,6.707,5.768z M1.813,3.979  c0,0,0.606,0.202,0.899,1.366c0,0-1.101,0.048-1.115-0.774C1.597,4.571,1.583,3.916,1.813,3.979z M2.39,5.945  C2.361,5.949,2.333,5.95,2.305,5.95c-0.028,0-0.055-0.001-0.082-0.005c-0.127-0.024-0.242-0.059-0.343-0.1  c-0.17-0.09-0.265-0.205-0.272-0.213C1.588,5.609,1.592,5.57,1.616,5.552C1.64,5.533,1.678,5.535,1.698,5.561  c0.003,0.004,0.26,0.31,0.682,0.271c0.032-0.003,0.06,0.021,0.063,0.052C2.445,5.916,2.422,5.943,2.39,5.945z M2.944,5.909  c-0.003,0.03-0.028,0.053-0.058,0.053c-0.001,0-0.003,0-0.004,0c-0.126-0.01-0.253-0.005-0.254-0.005  c-0.032,0.002-0.059-0.023-0.06-0.055C2.567,5.87,2.591,5.844,2.623,5.842c0.005,0,0.136-0.005,0.269,0.006  C2.923,5.85,2.947,5.878,2.944,5.909z M2.663,3.346c0.042-0.083,0.089-0.181,0.133-0.287C2.913,3.35,3.249,4.058,3.799,4.227  C3.877,4.25,3.957,4.263,4.038,4.263c0.134,0,0.271-0.034,0.409-0.101C4.172,4.396,3.76,4.517,3.269,4.285  C2.952,4.135,2.766,3.701,2.663,3.346z M4.438,5.938c-0.056,0-0.101-0.045-0.101-0.101s0.045-0.103,0.101-0.103  s0.101,0.047,0.101,0.103S4.494,5.938,4.438,5.938z M4.874,6.297c-0.056,0-0.101-0.046-0.101-0.102c0-0.057,0.045-0.102,0.101-0.102  s0.101,0.047,0.101,0.102S4.929,6.297,4.874,6.297z M4.877,5.938c-0.056,0-0.101-0.045-0.101-0.101s0.045-0.103,0.101-0.103  s0.101,0.047,0.101,0.103S4.933,5.938,4.877,5.938z M5.313,5.938c-0.056,0-0.101-0.045-0.101-0.101s0.045-0.103,0.101-0.103  s0.101,0.047,0.101,0.103S5.368,5.938,5.313,5.938z M6.168,5.624C6.143,5.602,6.102,5.604,6.08,5.631l-0.1,0.116  c-0.028-0.019-0.059-0.036-0.09-0.054l0.075-0.151c0.017-0.03,0.003-0.068-0.028-0.084C5.907,5.442,5.87,5.455,5.854,5.486  L5.775,5.643C5.743,5.63,5.708,5.618,5.673,5.607L5.73,5.44c0.012-0.033-0.006-0.069-0.039-0.08C5.66,5.349,5.625,5.366,5.613,5.398  L5.553,5.573C5.52,5.564,5.485,5.559,5.451,5.552l0.043-0.158C5.503,5.36,5.483,5.326,5.45,5.317  c-0.033-0.01-0.067,0.01-0.076,0.043L5.327,5.529C5.293,5.525,5.259,5.52,5.224,5.516l0.034-0.159  C5.265,5.323,5.243,5.29,5.209,5.283C5.175,5.276,5.142,5.298,5.135,5.331L5.098,5.504C5.063,5.501,5.029,5.499,4.994,5.497  L5.02,5.332c0.005-0.034-0.018-0.066-0.052-0.071C4.933,5.255,4.901,5.278,4.896,5.313L4.868,5.491  C4.833,5.49,4.799,5.489,4.765,5.488l0.018-0.171c0.003-0.034-0.021-0.065-0.056-0.068c-0.035-0.004-0.066,0.022-0.07,0.056  L4.639,5.488c-0.034,0-0.068,0.001-0.102,0.002l0.008-0.177c0.001-0.035-0.025-0.064-0.06-0.065C4.45,5.246,4.42,5.273,4.419,5.308  L4.411,5.494C4.376,5.495,4.343,5.497,4.31,5.499l-0.003-0.17c-0.001-0.035-0.03-0.061-0.065-0.061  C4.208,5.269,4.18,5.297,4.181,5.332l0.003,0.175C4.15,5.509,4.117,5.512,4.086,5.516L4.068,5.354  C4.064,5.319,4.033,5.295,3.999,5.299c-0.035,0.004-0.06,0.034-0.056,0.069l0.018,0.157c-0.047,0.004-0.087,0.01-0.122,0.014  L3.094,4.325c0.038,0.028,0.079,0.053,0.122,0.073c0.297,0.14,0.6,0.173,0.877,0.095c0.25-0.07,0.471-0.226,0.636-0.449  C4.905,3.807,5.234,3.55,5.54,3.547C5.669,3.546,5.783,3.591,5.88,3.68L5.062,4.498c0,0-0.251,0.366,0.334,0.502  C5.85,5.105,6.221,4.629,6.365,4.407l0.107,0.171C6.424,5.191,6.598,5.454,6.725,5.564C6.711,5.581,6.695,5.6,6.68,5.616  C6.66,5.611,6.641,5.609,6.621,5.609c-0.076,0-0.146,0.033-0.195,0.091c-0.051,0.06-0.07,0.136-0.059,0.208  C6.332,5.938,6.293,5.965,6.254,5.994C6.178,5.923,6.116,5.866,6.076,5.828l0.099-0.115C6.197,5.688,6.193,5.646,6.168,5.624z   M8.547,7.307C8.213,7.465,7.549,7.049,6.984,6.611c0.027-0.025,0.055-0.055,0.086-0.09c0.006,0.002,0.012,0.002,0.018,0.002  c0.076,0,0.146-0.032,0.195-0.09C7.328,6.381,7.35,6.314,7.346,6.245C7.344,6.227,7.34,6.208,7.334,6.189  c0.082-0.119,0.16-0.258,0.225-0.408L8.65,7.152L8.547,7.307z"/></svg>