<svg xmlns="http://www.w3.org/2000/svg" xmlns:xlink="http://www.w3.org/1999/xlink" version="1.1" x="0px" y="0px" viewBox="0 0 103 157.58749999999998" style="enable-background:new 0 0 103 126.07;" xml:space="preserve"><g><path d="M30.87,37.32c-0.167,0-0.33,0.021-0.488,0.056c-0.171-0.023-0.351-0.073-0.5-0.187c-0.084-0.065-0.142-0.121-0.191-0.188   c-0.33-0.442-0.957-0.534-1.4-0.202c-0.442,0.33-0.533,0.957-0.203,1.399c0.157,0.21,0.343,0.397,0.576,0.577   c0.031,0.024,0.064,0.036,0.095,0.058c-0.002,0.006-0.003,0.011-0.005,0.017c-0.023-0.001-0.042,0.002-0.065,0   c-0.428-0.017-0.824-0.098-1.115-0.226c-0.506-0.226-1.096,0.004-1.319,0.509c-0.224,0.506,0.005,1.096,0.51,1.319   c0.661,0.293,1.369,0.377,1.834,0.396c0.117,0.006,0.234,0.009,0.353,0.009c0.032,0,0.064-0.004,0.096-0.005   c0.405,0.575,1.067,0.957,1.822,0.957c1.24,0,2.25-1.01,2.25-2.25S32.11,37.32,30.87,37.32z"/><path d="M27.297,30.356c1.79-1.265,4.382-0.852,4.441-0.841c0.548,0.091,1.061-0.269,1.157-0.812   c0.096-0.544-0.268-1.063-0.812-1.158c-0.14-0.025-3.449-0.583-5.94,1.178c-0.451,0.318-0.558,0.942-0.24,1.394   c0.195,0.275,0.504,0.423,0.818,0.423C26.92,30.54,27.122,30.48,27.297,30.356z"/><path d="M47.907,27.546c-0.543,0.095-0.905,0.612-0.811,1.155c0.095,0.543,0.608,0.909,1.155,0.814   c0.026-0.005,2.64-0.432,4.442,0.841c0.175,0.124,0.377,0.184,0.576,0.184c0.314,0,0.623-0.147,0.818-0.423   c0.318-0.451,0.211-1.075-0.24-1.394C51.355,26.964,48.047,27.521,47.907,27.546z"/><path d="M102,21.07H65.854C62.464,7.867,52.861,0,40,0C28.428,0,21.952,5.992,18.557,11.019c-5.79,8.572-6.739,20.339-4.411,27.418   c-3.495,1.416-5.095,5.93-3.565,10.089c0.977,2.655,2.983,4.545,5.272,5.2c-0.932,1.136-1.473,2.581-1.473,4.113   c0,1.087,0.285,2.153,0.802,3.101c-1.407,0.922-2.302,2.494-2.302,4.229c0,0.81,0.208,1.603,0.576,2.319   c-1.097,0.952-1.756,2.34-1.756,3.831c0,0.921,0.258,1.805,0.717,2.574c-1.006,0.944-1.607,2.275-1.607,3.685   c0,1.137,0.383,2.225,1.056,3.093c-1.629,2.399-1.563,6.658,0.224,10.593c-3.99,5.497-7.107,12.084-9.257,19.603   c-0.001,0.002-0.001,0.004-0.002,0.006c-0.011,0.037-0.023,0.072-0.033,0.109c-1.227,4.282-2.166,8.979-2.791,13.96   c-0.036,0.285,0.053,0.571,0.242,0.786c0.19,0.216,0.463,0.339,0.75,0.339h78h23c0.552,0,1-0.447,1-1v-43.72v-1.74V22.07   C103,21.518,102.552,21.07,102,21.07z M64.2,106.051c-0.552,0-1,0.447-1,1v17.02H16.8v-17.02c0-0.553-0.448-1-1-1   c-0.552,0-1,0.447-1,1v5.183l-9.755-1.758c1.964-6.542,4.683-12.326,8.099-17.234c1.294,2.054,3.901,5.133,6.03,6.712   c0.175,0.129,0.384,0.196,0.596,0.196c0.118,0,0.237-0.021,0.351-0.063c0.317-0.119,0.553-0.391,0.626-0.722   c0.714-3.241,0.713-8.571,0.713-11.756V87.48c0-1.142-0.079-2.193-0.227-3.147c2.691-2.253,5.607-4.121,8.684-5.566   c3.347,2.353,6.715,3.544,10.084,3.544c3.373,0,6.746-1.194,10.097-3.553c8.309,3.889,19.102,12.54,24.865,31.716l-9.762,1.759   v-5.183C65.2,106.498,64.752,106.051,64.2,106.051z M33,75.363c-1.161,0.398-2.309,0.838-3.412,1.336   c-3.14,1.419-6.112,3.279-8.879,5.492c-0.211-0.588-0.47-1.101-0.77-1.546c0.667-0.873,1.04-1.947,1.04-3.065   c0-0.919-0.257-1.801-0.719-2.573c1.007-0.944,1.609-2.276,1.609-3.686c0-0.81-0.208-1.603-0.576-2.319   c1.097-0.952,1.756-2.339,1.756-3.832c0-0.384-0.048-0.758-0.132-1.123c0.474-0.131,0.907-0.322,1.337-0.616   c2.014,1.769,4.991,3.893,8.745,5.264V75.363z M32.094,77.819c0.728-0.286,1.466-0.556,2.213-0.797   c0.423-0.137,0.679-0.53,0.68-0.952H35v-6.742C36.677,69.768,38.354,70,40,70c1.646,0,3.323-0.232,5-0.671v6.741h0.014   c0,0.422,0.256,0.815,0.68,0.952c0.747,0.24,1.484,0.51,2.212,0.797C42.6,81.133,37.399,81.133,32.094,77.819z M45.687,67.051   c-3.822,1.26-7.553,1.26-11.373,0c-3.258-1.077-6.58-3.092-9.355-5.675c-1.69-1.563-3.147-3.3-4.101-4.89   c-0.584-0.977-1.151-2.247-1.712-3.853c-1.214-3.517-2.161-8.246-2.679-13.341c4.101-8.869,10.645-15.89,19.954-21.376   c-0.776,2.419-0.6,5.192,0.53,8.286c0.184,0.502,0.727,0.771,1.236,0.612c7.344-2.283,11.886-5.389,13.835-9.47   c5.12,2.942,8.559,12.194,11.509,21.875c-0.515,5.116-1.455,9.843-2.654,13.344c-0.003,0.008-0.004,0.016-0.007,0.023   c-0.005,0.015-0.01,0.031-0.015,0.046c-0.542,1.569-1.118,2.865-1.712,3.852C56.932,60.171,51.778,65.049,45.687,67.051z    M65.406,40.464c2.276,1.164,3.245,4.357,2.136,7.371c-0.797,2.166-2.514,3.694-4.348,4.057   C64.159,48.689,64.925,44.72,65.406,40.464z M12.458,47.835c-1.108-3.012-0.145-6.204,2.126-7.37   c0.481,4.247,1.252,8.22,2.223,11.429C14.969,51.535,13.256,50.002,12.458,47.835z M4.49,112.408l10.31,1.858v9.804H2.14   C2.703,119.938,3.498,116.034,4.49,112.408z M65.2,124.07v-9.804l10.31-1.858c0.992,3.624,1.787,7.529,2.35,11.662H65.2z    M79.867,124.07c-0.623-4.652-1.511-9.057-2.665-13.084C71.2,89.923,59.32,80.715,50.412,76.699   c-1.103-0.498-2.251-0.938-3.412-1.336v-6.661c6.3-2.292,11.469-7.206,13.857-11.187c0.57-0.947,1.115-2.139,1.63-3.527   c2.949-0.042,5.724-2.18,6.931-5.462c1.535-4.172-0.081-8.7-3.587-10.095c1.386-4.194,1.563-9.862,0.476-15.361H101V77   c-0.231-0.064-0.469-0.109-0.72-0.109h-6.86c-1.5,0-2.72,1.22-2.72,2.72v1.74c0,1.5,1.22,2.72,2.72,2.72h6.86   c0.251,0,0.489-0.045,0.72-0.109v40.109H79.867z"/><path d="M88.94,60.92c0,1.808,2.266,3.17,5.27,3.17c3.01,0,5.28-1.362,5.28-3.17c0-1.801-2.27-3.159-5.28-3.159   C91.206,57.761,88.94,59.119,88.94,60.92z"/><path d="M86.61,46.63c3.01,0,5.28-1.358,5.28-3.159c0-1.808-2.27-3.17-5.28-3.17c-3.01,0-5.28,1.362-5.28,3.17   C81.33,45.271,83.6,46.63,86.61,46.63z"/><path d="M71.6,65.37c3.01,0,5.28-1.362,5.28-3.17c0-1.802-2.27-3.16-5.28-3.16c-3.01,0-5.28,1.358-5.28,3.16   C66.32,64.008,68.59,65.37,71.6,65.37z"/><path d="M75.36,81c-3.004,0-5.27,1.358-5.27,3.16c0,1.808,2.266,3.17,5.27,3.17c3.01,0,5.28-1.362,5.28-3.17   C80.64,82.358,78.37,81,75.36,81z"/><path d="M64.55,68.681h-6.86c-1.5,0-2.72,1.216-2.72,2.71v1.75c0,1.5,1.22,2.72,2.72,2.72h6.86c1.5,0,2.72-1.22,2.72-2.72v-1.75   C67.27,69.896,66.05,68.681,64.55,68.681z"/><path d="M72.44,34.62h6.87c1.494,0,2.71-1.216,2.71-2.71v-1.75c0-1.5-1.216-2.72-2.71-2.72h-6.87c-1.494,0-2.71,1.22-2.71,2.72   v1.75C69.73,33.404,70.946,34.62,72.44,34.62z"/><path d="M96.14,100.87h-6.87c-1.494,0-2.71,1.216-2.71,2.71v1.75c0,1.5,1.216,2.721,2.71,2.721h6.87c1.494,0,2.71-1.221,2.71-2.721   v-1.75C98.85,102.086,97.634,100.87,96.14,100.87z"/><path d="M90.45,114.761h-6.86c-1.494,0-2.71,1.22-2.71,2.72v1.75c0,1.494,1.216,2.71,2.71,2.71h6.86c1.5,0,2.72-1.216,2.72-2.71   v-1.75C93.17,115.98,91.95,114.761,90.45,114.761z"/><path d="M94.21,33.16c1.996,0,3.62-1.624,3.62-3.62s-1.624-3.62-3.62-3.62c-1.991,0-3.61,1.624-3.61,3.62S92.219,33.16,94.21,33.16   z"/><path d="M85.23,54.681c0-1.996-1.619-3.62-3.61-3.62c-1.996,0-3.62,1.624-3.62,3.62s1.624,3.62,3.62,3.62   C83.611,58.301,85.23,56.677,85.23,54.681z"/><path d="M84.23,76.221c1.996,0,3.62-1.624,3.62-3.62s-1.624-3.62-3.62-3.62c-1.991,0-3.61,1.624-3.61,3.62   S82.239,76.221,84.23,76.221z"/><circle cx="87.02" cy="91.311" r="3.62"/><path d="M42.58,42.647c-1.878,0.529-3.622,0.521-5.457,0.001c-0.531-0.152-1.084,0.158-1.235,0.688   c-0.151,0.531,0.158,1.085,0.689,1.235c1.093,0.311,2.195,0.468,3.273,0.468c1.066,0,2.167-0.157,3.271-0.467   c0.532-0.149,0.841-0.701,0.692-1.233C43.663,42.808,43.11,42.498,42.58,42.647z"/><path d="M52.131,38.623c-0.307,0.134-0.68,0.212-1.131,0.238c-0.018,0.001-0.033-0.001-0.051,0   c-0.003-0.009-0.005-0.019-0.009-0.028c0.034-0.023,0.069-0.036,0.103-0.061c0.224-0.174,0.41-0.36,0.567-0.571   c0.332-0.441,0.242-1.068-0.2-1.399s-1.068-0.242-1.4,0.2c-0.051,0.067-0.108,0.124-0.18,0.18   c-0.158,0.118-0.338,0.172-0.509,0.197c-0.159-0.035-0.323-0.057-0.491-0.057c-1.24,0-2.25,1-2.25,2.24s1.01,2.25,2.25,2.25   c0.755,0,1.412-0.377,1.817-0.948c0.034,0,0.066,0.005,0.1,0.005c0.121,0,0.242-0.003,0.362-0.009   c0.699-0.041,1.294-0.173,1.82-0.401c0.506-0.221,0.738-0.81,0.518-1.316C53.226,38.635,52.637,38.402,52.131,38.623z"/></g></svg>