<svg xmlns="http://www.w3.org/2000/svg" xmlns:xlink="http://www.w3.org/1999/xlink" version="1.1" x="0px" y="0px" viewBox="0 0 100 125" style="enable-background:new 0 0 100 100;" xml:space="preserve"><g><path d="M50.929,29.083c0.128-0.359,0.142-0.757-0.012-1.14c-0.355-0.882-1.411-1.416-2.32-1.078   c-0.097,0.036-0.174,0.089-0.237,0.151c-0.083,0.023-0.165,0.064-0.243,0.127c-0.675,0.544-0.799,1.576-0.389,2.318   c0.352,0.637,1.032,0.915,1.702,0.824c-9.304,7.627-17.221,16.628-23.572,26.899c-0.424,0.686,0.657,1.315,1.079,0.631   c6.894-11.149,15.636-20.829,26.047-28.793c0.63-0.482,0.008-1.568-0.631-1.079C51.869,28.313,51.407,28.706,50.929,29.083z    M48.969,28.063c0.633-0.192,1.178,0.639,0.453,0.95C48.772,29.292,48.571,28.443,48.969,28.063z"/><path d="M81.803,17.629c-9.96-4.8-22.17-2.338-31.314,3.116c-0.014-0.001-0.026-0.009-0.04-0.009   c-1.204-0.079-2.353,0.156-3.455,0.602c-0.32-0.036-0.661,0.058-0.96,0.351c-9.779,9.561-19.292,19.381-28.539,29.458   c-0.031,0.034-0.052,0.07-0.079,0.105c-0.294,0.128-0.54,0.377-0.654,0.777c-0.279,0.976-0.558,1.952-0.837,2.927   c-0.418,0.237-0.691,0.743-0.673,1.246c-2.89,2.865-4.992,6.323-6.19,10.2c-0.273,0.2-0.47,0.513-0.485,0.947   c-0.221,6.356,1.893,12.857,8.524,14.895c8.482,2.607,17.285-1.405,24.685-5.243c8.78-4.555,16.992-8.991,24.671-15.275   c7.839-6.416,16.127-12.554,22.384-20.609c0.281-0.361,0.33-0.765,0.242-1.128C93.887,31.257,91.285,22.199,81.803,17.629z    M30.623,79.213c-3.327,1.019-7.151,1.744-10.681,1.154c-1.39-0.316-2.749-0.839-4.05-1.652c-1.18-0.738-2.107-1.546-2.82-2.404   c-1.173-1.726-1.739-3.829-1.931-6.069c0.298-4.609,3.698-9.502,6.905-12.928c0.184-0.197,0.199-0.425,0.127-0.622   c0.273-0.04,0.52-0.23,0.519-0.587c-0.002-0.867,0.111-1.705,0.326-2.534c0.122-0.014,0.244-0.059,0.354-0.173   c0.295-0.306,0.589-0.611,0.884-0.917c-0.624,0.81-1.049,1.7-1.183,2.977c-0.561,0.355-0.242,1.369,0.467,1.127   c2.497-0.852,4.792,0.997,4.615,3.56c-0.051,0.042-0.091,0.092-0.12,0.146c-0.076,0.014-0.154,0.041-0.233,0.093   c-3.127,2.059-5.077,5.33-5.383,8.991c-0.493-1.108-0.409-2.583,0.631-4.518c0.381-0.708-0.698-1.34-1.079-0.631   c-1.312,2.44-0.934,4.784,0.412,6.526c0.001,0.036-0.004,0.071-0.003,0.108c0.012,0.304,0.199,0.492,0.426,0.566   c0.254,0.411,0.643,0.734,1.198,0.941c0.1,0.037,0.196,0.06,0.288,0.072c1.129,0.688,2.48,1.125,3.937,1.198   c3.402,0.171,6.49-1.379,9.42-2.927c3.088-1.631,6.121-3.376,9.113-5.185c2.311-1.327,4.606-2.678,6.864-4.06   c7.779-4.76,15.139-10.157,21.659-16.467c3.906-3.304,8.009-6.911,9.66-11.521c0.072-0.091,0.129-0.198,0.141-0.338   c0.002-0.028,0.001-0.053,0.003-0.081c0.479-1.491,0.701-3.085,0.573-4.808c0.278-2.532-0.953-5.014-3.26-6.211   c-0.713-0.37-1.346,0.708-0.631,1.079c1.437,0.745,2.412,2.113,2.654,3.652c-0.1,0.131-0.154,0.301-0.119,0.502   c0.045,0.266,0.06,0.521,0.087,0.78c-1.55-3.569-5.361-5.04-9.716-5.241c-2.345-0.191-4.771,0.083-7.145,0.624   c-2.696,0.552-5.246,1.404-7.259,2.373c-0.239,0.098-0.48,0.196-0.714,0.295c-0.191,0.081-0.334,0.187-0.439,0.31   c-0.106,0.06-0.214,0.12-0.316,0.181c-0.349-1.603-1.39-3.024-2.921-3.766c5.875-3.474,12.748-5.552,19.584-5.176   c3.857,0.375,8.356,1.524,11.858,3.787c1.613,1.131,3.044,2.514,4.149,4.189c0.347,0.526,0.629,1.053,0.869,1.58   c0.284,0.699,0.518,1.429,0.654,2.219c0.226,1.319,0.227,2.585,0.068,3.808c-0.389,2.199-1.393,4.374-2.703,6.493   c-0.121,0.196-0.175,0.388-0.186,0.571c-0.285,0.418-0.582,0.831-0.893,1.235c-3.729,4.339-8.019,8.077-12.431,11.728   c-3.141,2.46-6.397,4.772-9.771,6.918c-0.285,0.181-0.331,0.475-0.247,0.725c-7.866,6.002-16.309,11.321-25.237,15.583   C35.3,77.544,32.976,78.492,30.623,79.213z M68.966,25.321c4.682-0.012,12.046,2.978,8.724,8.959   c-0.049,0.046-0.098,0.091-0.144,0.149C70.68,43.116,62.28,50.252,53.054,56.333c-4.38,2.887-8.91,5.541-13.5,8.079   c-4.901,2.71-13.156,9.082-18.48,5.289c-0.055-0.039-0.109-0.065-0.163-0.093c0.463-0.901,1.396-3.267,1.571-3.591   c0.656-1.21,1.494-2.781,2.737-3.455c0.135-0.073,0.239-0.162,0.328-0.257c0.034-0.008,0.068-0.01,0.101-0.023   c0.632-0.23,1.264-0.46,1.897-0.691c0.376-0.137,0.675-0.412,0.821-0.755c0.143-0.087,0.276-0.208,0.39-0.368   c7.931-11.122,17.04-21.231,27.247-30.306c0.273-0.243,0.388-0.522,0.396-0.795c0.16-0.215,0.271-0.474,0.303-0.762   c0.002-0.022,0.083-0.193,0.129-0.246c0.035-0.041,0.052-0.091,0.082-0.134C60.629,26.663,64.89,25.332,68.966,25.321z    M53.62,28.473c-10.417,9.015-19.497,19.314-27.135,30.785c-0.017,0.026-0.018,0.051-0.031,0.077   c-0.342,0.125-0.684,0.249-1.026,0.374c-0.034-2.732-2.406-4.784-5.048-4.57c0.635-3.061,4.918-6.077,6.962-8.123   c2.514-2.517,5.027-5.033,7.541-7.55c4.799-4.804,9.597-9.609,14.396-14.413c0.569-0.57-0.314-1.454-0.884-0.884   c-5.941,5.948-11.882,11.896-17.823,17.845c-2.012,2.015-4.035,4.02-6.044,6.038c7.642-7.926,15.283-15.853,22.925-23.779   c0.073-0.006,0.148-0.017,0.225-0.051c1.048-0.468,2.159-0.603,3.292-0.484c0.028,0.018,0.045,0.041,0.08,0.056   C52.904,24.592,53.956,26.516,53.62,28.473z"/></g></svg>