<svg xmlns:dc="http://purl.org/dc/elements/1.1/" xmlns:cc="http://creativecommons.org/ns#" xmlns:rdf="http://www.w3.org/1999/02/22-rdf-syntax-ns#" xmlns:svg="http://www.w3.org/2000/svg" xmlns="http://www.w3.org/2000/svg" xmlns:sodipodi="http://sodipodi.sourceforge.net/DTD/sodipodi-0.dtd" xmlns:inkscape="http://www.inkscape.org/namespaces/inkscape" viewBox="0 0 8.4666667 10.583333625" version="1.1" x="0px" y="0px"><svg:g><svg:path style="color:#000000;font-style:normal;font-variant:normal;font-weight:normal;font-stretch:normal;font-size:medium;line-height:normal;font-family:sans-serif;font-variant-ligatures:normal;font-variant-position:normal;font-variant-caps:normal;font-variant-numeric:normal;font-variant-alternates:normal;font-feature-settings:normal;text-indent:0;text-align:start;text-decoration:none;text-decoration-line:none;text-decoration-style:solid;text-decoration-color:#000000;letter-spacing:normal;word-spacing:normal;text-transform:none;writing-mode:lr-tb;direction:ltr;text-orientation:mixed;dominant-baseline:auto;baseline-shift:baseline;text-anchor:start;white-space:normal;shape-padding:0;clip-rule:nonzero;display:inline;overflow:visible;visibility:visible;opacity:1;isolation:auto;mix-blend-mode:normal;color-interpolation:sRGB;color-interpolation-filters:linearRGB;solid-color:#000000;solid-opacity:1;vector-effect:none;fill:#000000;fill-opacity:1;fill-rule:nonzero;stroke:none;stroke-width:0.5291667;stroke-linecap:round;stroke-linejoin:round;stroke-miterlimit:4;stroke-dasharray:none;stroke-dashoffset:0;stroke-opacity:1;paint-order:stroke fill markers;color-rendering:auto;image-rendering:auto;shape-rendering:auto;text-rendering:auto;enable-background:accumulate" d="m 0.66985683,0.73575128 c -0.366452,10e-9 -0.669921996667,0.30347062 -0.669921996667,0.66992192 v 4.09375 c 0,0.3664512 0.303469996667,0.6699219 0.669921996667,0.6699219 H 1.2245438 v 1.296875 a 0.26460981,0.26460981 0 0 0 0.421875,0.2128906 l 2.046875,-1.5097656 h 4.103516 c 0.366452,0 0.669922,-0.3034699 0.669922,-0.6699219 v -4.09375 c 0,-0.3664521 -0.30347,-0.66992191 -0.669922,-0.66992192 z m 0,0.52929692 H 7.7968098 c 0.08245,0 0.140625,0.058178 0.140625,0.140625 v 4.09375 c 0,0.082446 -0.05818,0.140625 -0.140625,0.140625 h -4.191406 a 0.26460981,0.26460981 0 0 0 -0.15625,0.052734 l -1.695313,1.25 V 5.9056732 A 0.26460981,0.26460981 0 0 0 1.4882158,5.6400482 H 0.66985683 c -0.08245,0 -0.140625,-0.058178 -0.140625,-0.140625 v -4.09375 c 0,-0.082448 0.05818,-0.140625 0.140625,-0.140625 z"/></svg:g></svg>