<svg xmlns="http://www.w3.org/2000/svg" xmlns:xlink="http://www.w3.org/1999/xlink" version="1.1" x="0px" y="0px" viewBox="0 0 128 160" style="enable-background:new 0 0 128 128;" xml:space="preserve"><g><path d="M71.594,63.139c0.444-0.328,0.539-0.954,0.211-1.398c-0.328-0.445-0.954-0.539-1.398-0.211   C69.195,62.423,66.758,63,64.198,63c-3.281,0-5.628-0.861-6.498-1.714c-0.394-0.386-1.028-0.382-1.414,0.014   c-0.387,0.394-0.381,1.027,0.014,1.414C57.737,64.124,60.764,65,64.198,65C67.249,65,70.014,64.304,71.594,63.139z"/><path d="M57,44.263v-2.527C57,40.228,55.772,39,54.264,39h-0.527C52.228,39,51,40.228,51,41.736v2.527   C51,45.772,52.228,47,53.736,47h0.527C55.772,47,57,45.772,57,44.263z M55,44.263C55,44.669,54.67,45,54.264,45h-0.527   C53.33,45,53,44.669,53,44.263v-2.527C53,41.33,53.33,41,53.736,41h0.527C54.67,41,55,41.33,55,41.736V44.263z"/><path d="M74.264,39h-0.527C72.228,39,71,40.228,71,41.736v2.527C71,45.772,72.228,47,73.736,47h0.527   C75.772,47,77,45.772,77,44.263v-2.527C77,40.228,75.772,39,74.264,39z M75,44.263C75,44.669,74.67,45,74.264,45h-0.527   C73.33,45,73,44.669,73,44.263v-2.527C73,41.33,73.33,41,73.736,41h0.527C74.67,41,75,41.33,75,41.736V44.263z"/><path d="M51.018,37l6-0.105c0.552-0.01,0.992-0.465,0.982-1.018c-0.011-0.553-0.424-0.987-1.018-0.982l-6,0.105   c-0.552,0.01-0.992,0.465-0.982,1.018C50.01,36.564,50.455,37,51,37C51.006,37,51.012,37,51.018,37z"/><path d="M70.982,36.895l6,0.105c0.006,0,0.012,0,0.018,0c0.545,0,0.99-0.436,1-0.982c0.01-0.552-0.431-1.008-0.982-1.018l-6-0.105   c-0.582,0.002-1.008,0.43-1.018,0.982S70.431,36.885,70.982,36.895z"/><path d="M54,24c2.206,0,4-1.794,4-4s-1.794-4-4-4s-4,1.794-4,4S51.794,24,54,24z M54,18c1.103,0,2,0.897,2,2s-0.897,2-2,2   s-2-0.897-2-2S52.897,18,54,18z"/><path d="M74,24c2.206,0,4-1.794,4-4s-1.794-4-4-4s-4,1.794-4,4S71.794,24,74,24z M74,18c1.103,0,2,0.897,2,2s-0.897,2-2,2   s-2-0.897-2-2S72.897,18,74,18z"/><path d="M123.565,71.057c-0.316-0.541-0.844-0.914-1.446-1.023c-0.595-0.104-1.205,0.051-1.7,0.454L118,72.577V2   c0-0.552-0.447-1-1-1h-4c-0.553,0-1,0.448-1,1v63.616l-6.829,7.566c-0.328-0.048-0.66-0.081-1.001-0.081   c-3.82,0-6.928,3.107-6.928,6.928c0,0.089,0.01,0.176,0.013,0.265C95.884,81.384,95,83.063,95,84.948v3.551   c-0.936-0.174-1.912-0.342-2.976-0.498c-8.684-1.905-11.983-2.6-13.266-2.854l-1.941-11.422c4.158-2.259,7.708-5.606,10.231-9.738   c0.26-0.016,0.513-0.122,0.694-0.33c5.858-6.721,7-21.656,7.203-25.635l0.218-0.036C95.646,37.906,96,37.489,96,37V27   c0-0.466-0.322-0.871-0.777-0.975l-1.657-0.379C91.279,9.972,80.54,1,64,1S36.721,9.972,34.435,25.646l-1.657,0.379   C32.322,26.129,32,26.534,32,27v10c0,0.489,0.354,0.906,0.836,0.986l0.206,0.034C33.245,42,34.39,56.94,40.246,63.657   c0.184,0.211,0.442,0.319,0.706,0.332c2.523,4.133,6.073,7.478,10.23,9.736l-1.941,11.422c-1.279,0.253-4.564,0.945-13.198,2.841   c-13.622,2.013-24.609,5.812-21.055,31.997l-0.975,5.851c-0.049,0.29,0.033,0.586,0.224,0.811C14.427,126.871,14.706,127,15,127h98   h4c0.553,0,1-0.447,1-1V98.273l1.562,1.29c0.369,0.285,0.819,0.438,1.277,0.438c0.128,0,0.256-0.012,0.384-0.036   c0.584-0.11,1.097-0.471,1.404-0.986C130.715,85.435,125.391,74.184,123.565,71.057z M116,3v71.305l-2,1.728V3H116z M112,68.6   v9.161l-1.039,0.898c-0.425-2.113-1.818-3.875-3.691-4.818L112,68.6z M104.17,75.101c2.717,0,4.928,2.211,4.928,4.928   c0,0.086-0.011,0.169-0.016,0.253l-2.601,2.247C105.552,80.452,103.47,79,101.052,79h-0.104c-0.564,0-1.108,0.084-1.625,0.231   C99.707,76.894,101.726,75.101,104.17,75.101z M112,99.973c-0.748-1.924-1.749-3.568-3-4.964V92c0-0.553-0.447-1-1-1h-1v-1.806   l5,4.127V99.973z M97,90.953c2.42,0.565,4.341,1.232,6,2.055V102c0,0.553,0.447,1,1,1h1v4.052c0,2.177-1.771,3.948-3.948,3.948   h-0.104c-2.177,0-3.948-1.771-3.948-3.948V90.953z M105,101v-8h2v8H105z M104.788,83.991c-0.309,0.255-0.524,0.591-0.653,0.961   c-2.257-0.016-4.14-1.562-4.704-3.647C99.899,81.11,100.411,81,100.948,81h0.104c1.825,0,3.35,1.251,3.8,2.936L104.788,83.991z    M97,84.948c0-0.863,0.286-1.656,0.758-2.306c1.034,2.527,3.517,4.314,6.412,4.314c0.078,0,0.154-0.014,0.232-0.016   c0.118,0.169,0.251,0.325,0.413,0.451L105,87.543V91h-1c-0.138,0-0.269,0.028-0.389,0.078c-1.84-0.88-3.971-1.582-6.611-2.172   V84.948z M97,125H31v-0.999c2.7-2.359,6.79-9.988,7.158-34.431c1.901-0.416,3.984-0.869,5.877-1.279   c0.233,3.762,0.988,11.057,3.43,17.625C50.894,115.13,56.611,120,64,120s13.106-4.87,16.534-14.084   c2.443-6.568,3.197-13.862,3.43-17.624c1.891,0.408,3.969,0.86,5.877,1.277C90.21,114.01,94.299,121.64,97,124V125z M89.946,55.342   c0.569-2.78,1.037-5.831,1.037-8.342v-8.317l1.942-0.324C92.751,41.419,92.119,48.995,89.946,55.342z M34,27.797l1.554-0.355   c0.409-0.093,0.716-0.432,0.77-0.847C37.454,17.782,42.554,3,64,3s26.546,14.782,27.677,23.594c0.054,0.416,0.36,0.754,0.77,0.847   L94,27.797v8.356l-4,0.667V33c0-0.552-0.447-1-1-1H39c-0.553,0-1,0.448-1,1v3.819l-4-0.667V27.797z M35.063,38.357l1.943,0.324V47   c0,2.511,0.468,5.561,1.036,8.34C35.871,48.993,35.238,41.417,35.063,38.357z M41.338,60.519   c-0.865-3.211-2.333-9.281-2.333-13.519v-8.022c0.232-0.001,0.461-0.062,0.641-0.215C39.871,38.573,40,38.294,40,38v-4h48v4   c0,0.294,0.129,0.573,0.354,0.763c0.177,0.15,0.401,0.23,0.63,0.234V47c0,4.259-1.485,10.375-2.347,13.572   C82.509,69.338,73.635,75,64,75C54.34,75,45.456,69.318,41.338,60.519z M50.131,87c0.479-0.01,0.885-0.359,0.966-0.832   l1.958-11.522C56.449,76.165,60.166,77,64,77c3.832,0,7.55-0.835,10.945-2.355l1.959,11.523c0.081,0.473,0.408,0.816,0.888,0.826   c0.26,0.035,1.942,0.388,4.195,0.872c-0.204,3.55-0.906,10.844-3.327,17.353C75.505,113.699,70.572,118,64,118   s-11.505-4.301-14.659-12.781c-2.421-6.51-3.124-13.805-3.327-17.355C48.246,87.384,49.906,87.033,50.131,87z M36.151,89.994   c-0.339,19.685-3.15,27.676-5.151,30.873V114c0-0.553-0.447-1-1-1s-1,0.447-1,1v11H16.181l0.806-4.836   c0.017-0.099,0.019-0.2,0.004-0.3C13.911,97.453,20.689,92.326,36.151,89.994z M99,125v-9.982c0-0.553-0.447-1-1-1s-1,0.447-1,1   v5.849c-2.001-3.197-4.811-11.188-5.15-30.87c1.133,0.17,2.174,0.348,3.15,0.536v16.519c0,3.28,2.668,5.948,5.948,5.948h0.104   c3.28,0,5.948-2.668,5.948-5.948V103h1c0.553,0,1-0.447,1-1v-3.629c2.742,4.567,3.382,11.502,2.01,21.493   c-0.015,0.1-0.013,0.201,0.004,0.3l0.806,4.836H99z M116,125h-2V94.971l2,1.651V125z M120.911,97.952l-0.1,0.048L107,86.601v-1.653   c0-0.073-0.008-0.143-0.011-0.215l14.772-12.732c0.017,0.003,0.049,0.016,0.078,0.064C123.523,74.952,128.436,85.35,120.911,97.952   z"/><path d="M111,83c-1.654,0-3,1.346-3,3s1.346,3,3,3s3-1.346,3-3S112.654,83,111,83z M111,87c-0.552,0-1-0.448-1-1s0.448-1,1-1   s1,0.448,1,1S111.552,87,111,87z"/></g></svg>